<svg xmlns="http://www.w3.org/2000/svg" viewBox="0 0 120 120" fill="none" role="img" aria-label="MD Dan1_manl1k logo i_areti  alt1n zemin">
  <title>MD Dan1_manl1k</title>
  <rect x="8" y="8" width="104" height="104" rx="18" fill="#B8860B"/>
  <path d="M28 78V42h8.5l11.5 22 11.5-22H68v36h-7.5V56.5L51 78h-5.5L35.5 56.5V78H28z" fill="#FDFBF7"/>
  <path d="M72 78V42h14.5c8.2 0 13.5 4.8 13.5 12.2 0 5.2-2.6 9.2-7 10.8L101 78h-9.2l-6.8-11.2H79.5V78H72zm7.5-17.2h6.5c3.8 0 6-2 6-5.3s-2.2-5.2-6-5.2h-6.5v10.5z" fill="#FDFBF7"/>
  <path d="M88 26l2.2 4.5 5 .7-3.6 3.5.9 5-4.5-2.4-4.5 2.4.9-5-3.6-3.5 5-.7L88 26z" fill="#FDFBF7"/>
  <path d="M24 88c24 10 48 10 72 0" stroke="#FDFBF7" stroke-width="1.5" stroke-linecap="round" opacity="0.5"/>
</svg>
