<svg xmlns="http://www.w3.org/2000/svg" viewBox="0 0 200 240" fill="none" role="img" aria-label="MD Dan??manl?k">
  <title>MD Dan??manl?k</title>
  <g transform="translate(32, 8)">
    <rect x="8" y="8" width="104" height="104" rx="18" fill="#FDFBF7" stroke="#B8860B" stroke-width="2.5"/>
    <path d="M28 78V42h8.5l11.5 22 11.5-22H68v36h-7.5V56.5L51 78h-5.5L35.5 56.5V78H28z" fill="#5C4A3D"/>
    <path d="M72 78V42h14.5c8.2 0 13.5 4.8 13.5 12.2 0 5.2-2.6 9.2-7 10.8L101 78h-9.2l-6.8-11.2H79.5V78H72zm7.5-17.2h6.5c3.8 0 6-2 6-5.3s-2.2-5.2-6-5.2h-6.5v10.5z" fill="#5C4A3D"/>
    <path d="M88 26l2.2 4.5 5 .7-3.6 3.5.9 5-4.5-2.4-4.5 2.4.9-5-3.6-3.5 5-.7L88 26z" fill="#B8860B"/>
    <path d="M24 88c24 10 48 10 72 0" stroke="#D4A853" stroke-width="1.5" stroke-linecap="round" opacity="0.85"/>
  </g>
  <text x="100" y="168" text-anchor="middle" font-family="Georgia, 'Times New Roman', serif" font-size="26" font-weight="600" fill="#5C4A3D">MD Dan??manl?k</text>
  <text x="100" y="192" text-anchor="middle" font-family="system-ui, sans-serif" font-size="9.5" font-weight="600" letter-spacing="0.2em" fill="#B8860B">GIDA &amp; ?ăECEK</text>
  <text x="100" y="208" text-anchor="middle" font-family="system-ui, sans-serif" font-size="9.5" font-weight="600" letter-spacing="0.2em" fill="#B8860B">DANI?MANLI?I</text>
  <text x="100" y="228" text-anchor="middle" font-family="system-ui, sans-serif" font-size="10" letter-spacing="0.12em" fill="#8A7568">1997&apos;DEN BER?</text>
</svg>
