<svg xmlns="http://www.w3.org/2000/svg" viewBox="0 0 420 96" fill="none" role="img" aria-label="MD Dan1_manl1k">
  <title>MD Dan1_manl1k</title>
  <rect x="4" y="8" width="80" height="80" rx="14" fill="#FDFBF7" stroke="#B8860B" stroke-width="2"/>
  <path d="M20 68V36h6.5l9 17.5 9-17.5h6.5v32h-6V50.5L38.5 68h-4.5L27 50.5V68h-7z" fill="#5C4A3D"/>
  <path d="M56 68V36h11.5c6.5 0 10.8 3.8 10.8 9.8 0 4.2-2.1 7.4-5.6 8.6L78 68h-7.2l-5.4-9H62.5V68H56zm6-14h5.2c2.9 0 4.6-1.6 4.6-4.2s-1.7-4.1-4.6-4.1H62v8.3z" fill="#5C4A3D"/>
  <path d="M72 30l1.6 3.2 3.5.5-2.5 2.4.6 3.5-3.2-1.7-3.2 1.7.6-3.5-2.5-2.4 3.5-.5L72 30z" fill="#B8860B"/>
  <path d="M18 76c20 8 40 8 60 0" stroke="#D4A853" stroke-width="1.2" stroke-linecap="round" opacity="0.8"/>
  <text x="104" y="44" font-family="Georgia, 'Times New Roman', serif" font-size="28" font-weight="600" fill="#5C4A3D">MD Dan1_manl1k</text>
  <text x="104" y="66" font-family="system-ui, sans-serif" font-size="11" font-weight="600" letter-spacing="0.22em" fill="#B8860B">GIDA &amp; 0ăECEK DANI^MANLII</text>
  <text x="104" y="84" font-family="system-ui, sans-serif" font-size="10" letter-spacing="0.08em" fill="#8A7568">1997&apos;DEN BER0</text>
</svg>
